HIERARCHY
ROOT Pelvis
{
	OFFSET 0.000000 0.000000 0.000000
	CHANNELS 6 Xposition Yposition Zposition Xrotation Yrotation Zrotation
	JOINT LeftUpLeg_virtual
	{
		OFFSET 0.000000 0.000000 0.000000
		CHANNELS 3 Xrotation Yrotation Zrotation
		JOINT LeftUpLeg
		{
			OFFSET 18.735201 -5.666702 -4.541200
			CHANNELS 3 Xrotation Yrotation Zrotation
			JOINT LeftLeg
			{
				OFFSET -0.021200 -31.938179 0.493100
				CHANNELS 3 Xrotation Yrotation Zrotation
				JOINT LeftFoot
				{
					OFFSET 0.021200 -31.938179 -4.336299
					CHANNELS 3 Xrotation Yrotation Zrotation
					JOINT LeftToeBase
					{
						OFFSET 0.943001 -26.722000 15.023500
						CHANNELS 3 Xrotation Yrotation Zrotation
						End Site
						{
							OFFSET 0 0 0
						}
					}
				}
			}
		}
	}
	JOINT RightUpLeg_virtual
	{
		OFFSET 0.000000 0.000000 0.000000
		CHANNELS 3 Xrotation Yrotation Zrotation
		JOINT RightUpLeg
		{
			OFFSET -18.735201 -5.666702 -4.541200
			CHANNELS 3 Xrotation Yrotation Zrotation
			JOINT RightLeg
			{
				OFFSET 0.018946 -31.938133 0.493100
				CHANNELS 3 Xrotation Yrotation Zrotation
				JOINT RightFoot
				{
					OFFSET -0.018946 -31.938126 -4.336299
					CHANNELS 3 Xrotation Yrotation Zrotation
					JOINT RightToeBase
					{
						OFFSET -0.943001 -26.722004 15.023500
						CHANNELS 3 Xrotation Yrotation Zrotation
						End Site
						{
							OFFSET 0 0 0
						}
					}
				}
			}
		}
	}
	JOINT Hips_virtual
	{
		OFFSET 0.000000 0.000000 0.000000
		CHANNELS 3 Xrotation Yrotation Zrotation
		JOINT Hips
		{
			OFFSET -0.000000 -0.000000 -0.000000
			CHANNELS 3 Xrotation Yrotation Zrotation
			JOINT Spine
			{
				OFFSET 0.000000 10.199997 -0.299500
				CHANNELS 3 Xrotation Yrotation Zrotation
				JOINT Spine1
				{
					OFFSET 0.000000 11.900002 -1.516600
					CHANNELS 3 Xrotation Yrotation Zrotation
					JOINT Spine2
					{
						OFFSET 0.000000 13.600006 -2.842500
						CHANNELS 3 Xrotation Yrotation Zrotation
						JOINT Neck_virtual
						{
							OFFSET 0.000000 0.000000 0.000000
							CHANNELS 3 Xrotation Yrotation Zrotation
							JOINT Neck
							{
								OFFSET 0.000000 9.624100 -2.890100
								CHANNELS 3 Xrotation Yrotation Zrotation
								JOINT Head
								{
									OFFSET 0.000000 14.068802 -1.351900
									CHANNELS 3 Xrotation Yrotation Zrotation
									End Site
									{
										OFFSET 0 0 0
									}
								}
							}
						}
						JOINT LeftShoulder_virtual
						{
							OFFSET 0.000000 0.000000 0.000000
							CHANNELS 3 Xrotation Yrotation Zrotation
							JOINT LeftShoulder
							{
								OFFSET 15.263000 10.923401 -0.547700
								CHANNELS 3 Xrotation Yrotation Zrotation
								JOINT LeftArm
								{
									OFFSET 25.438599 -2.830597 -13.032500
									CHANNELS 3 Xrotation Yrotation Zrotation
									JOINT LeftForeArm
									{
										OFFSET 29.960503 0.000000 0.000000
										CHANNELS 3 Xrotation Yrotation Zrotation
										JOINT LeftHand
										{
											OFFSET 27.849251 0.000000 0.000000
											CHANNELS 3 Xrotation Yrotation Zrotation
											End Site
											{
												OFFSET 0 0 0
											}
										}
									}
								}
							}
						}
						JOINT RightShoulder_virtual
						{
							OFFSET 0.000000 0.000000 0.000000
							CHANNELS 3 Xrotation Yrotation Zrotation
							JOINT RightShoulder
							{
								OFFSET -15.263000 10.923401 -0.547700
								CHANNELS 3 Xrotation Yrotation Zrotation
								JOINT RightArm
								{
									OFFSET -25.438599 -2.830597 -13.032500
									CHANNELS 3 Xrotation Yrotation Zrotation
									JOINT RightForeArm
									{
										OFFSET -29.960503 0.000000 0.000000
										CHANNELS 3 Xrotation Yrotation Zrotation
										JOINT RightHand
										{
											OFFSET -27.849251 0.000000 0.000000
											CHANNELS 3 Xrotation Yrotation Zrotation
											End Site
											{
												OFFSET 0 0 0
											}
										}
									}
								}
							}
						}
					}
				}
			}
		}
	}
}
MOTION
Frames: 5
Frame Time: 0.03333333
-4.672986 84.081032 2.158925 0.000000 0.000000 0.000000 4.010072 -45.741210 6.390152 -41.459347 -3.377071 19.531894 38.379000 -5.933557 -6.687479 -11.868306 -2.115300 -19.242668 0.000000 0.000000 0.000000 4.982062 -45.285633 -2.847089 -28.714815 -15.682326 -24.569901 49.678848 7.793074 -1.568359 -7.425109 4.888773 15.217989 0.000000 0.000000 0.000000 1.019288 -28.901368 2.239708 7.133692 -31.243498 10.422755 8.002608 -0.879997 -7.915510 4.972825 0.969584 -5.950553 0.000000 0.000000 0.000000 0.957703 3.913503 -4.637114 -2.270375 4.029617 -1.350504 0.000000 0.000000 0.000000 -0.428285 -0.220298 -4.816798 -3.663319 -7.591730 -12.569152 -16.413322 -0.559727 -37.805951 -1.424096 -32.915689 -0.144282 0.000000 0.000000 0.000000 1.063437 1.454696 -4.647084 0.095673 0.614313 -9.705246 -30.334434 -9.003592 39.671996 -83.561340 77.742108 80.201065 0.000000 0.000000 0.000000 
-5.029628 84.060097 2.303873 0.000000 0.000000 0.000000 4.145092 -45.456487 6.582486 -41.312427 -3.355818 19.697053 38.197604 -5.984337 -6.757084 -12.010688 -2.108207 -19.391734 0.000000 0.000000 0.000000 4.896804 -44.905588 -2.987749 -28.766660 -15.519346 -24.629630 50.531187 8.051327 -1.540238 -6.865183 5.178589 15.530583 0.000000 0.000000 0.000000 0.924552 -28.928993 2.321360 6.870264 -30.740093 10.471159 7.737920 -0.934172 -8.122229 4.913183 0.936063 -6.099358 0.000000 0.000000 0.000000 0.992012 3.800570 -4.975744 -2.298406 4.031521 -1.487232 0.000000 0.000000 0.000000 -0.550949 -0.273463 -4.985186 -3.842875 -7.600859 -12.661942 -16.752106 -0.520163 -37.478918 -1.489288 -32.980876 -0.073198 0.000000 0.000000 0.000000 0.861487 1.431874 -4.789729 -0.120021 0.254826 -10.169514 -30.170605 -9.436721 39.371096 -87.538553 77.588736 84.275382 0.000000 0.000000 0.000000 
-5.741564 84.003838 2.559078 0.000000 0.000000 0.000000 4.403782 -44.914200 6.947487 -41.032180 -3.312748 20.014777 37.840826 -6.092331 -6.884479 -12.299618 -2.105619 -19.671495 0.000000 0.000000 0.000000 4.727334 -44.128872 -3.267580 -28.869031 -15.190737 -24.749945 52.178561 8.560292 -1.480640 -5.788678 5.746670 16.161643 0.000000 0.000000 0.000000 0.751602 -29.015415 2.478127 6.394341 -29.745894 10.541906 7.239812 -1.027630 -8.499215 4.800404 0.870479 -6.372998 0.000000 0.000000 0.000000 1.041119 3.587776 -5.597693 -2.352287 4.029976 -1.736654 0.000000 0.000000 0.000000 -0.782721 -0.374718 -5.299646 -4.173878 -7.623242 -12.821752 -17.402799 -0.477116 -36.864279 -1.620406 -33.173122 0.053367 0.000000 0.000000 0.000000 0.482695 1.385396 -5.057693 -0.539395 -0.415229 -11.061153 -29.941893 -10.276268 38.760900 -94.399450 77.144712 91.308803 0.000000 0.000000 0.000000 
-6.802143 83.889565 2.870001 0.000000 0.000000 0.000000 4.768047 -44.159622 7.449981 -40.639274 -3.245659 20.460829 37.322462 -6.267755 -7.049838 -12.737885 -2.126687 -20.050568 0.000000 0.000000 0.000000 4.481095 -42.932879 -3.678968 -29.016396 -14.695611 -24.930675 54.508366 9.300141 -1.387697 -4.280218 6.567968 17.108661 0.000000 0.000000 0.000000 0.530278 -29.198980 2.699031 5.787161 -28.287932 10.598961 6.568895 -1.139149 -8.984725 4.647284 0.775361 -6.730245 0.000000 0.000000 0.000000 1.074627 3.297854 -6.408819 -2.428202 4.016674 -2.057988 0.000000 0.000000 0.000000 -1.098929 -0.514904 -5.720769 -4.607894 -7.662467 -13.006719 -18.312186 -0.485692 -36.036461 -1.815314 -33.584546 0.209266 0.000000 0.000000 0.000000 -0.027520 1.314390 -5.421158 -1.135873 -1.310527 -12.312392 -29.805118 -11.467554 37.831571 -102.297649 76.290249 99.417611 0.000000 0.000000 0.000000 
-8.192854 83.695648 3.183324 0.000000 0.000000 0.000000 5.219108 -43.243478 8.045892 -40.152811 -3.149704 21.001785 36.667481 -6.519778 -7.230763 -13.318241 -2.191494 -20.492116 0.000000 0.000000 0.000000 4.177926 -41.306313 -4.203376 -29.195346 -14.041215 -25.168557 57.355161 10.230572 -1.266453 -2.461439 7.598612 18.339637 0.000000 0.000000 0.000000 0.297969 -29.491432 2.971566 5.132516 -26.413096 10.618441 5.809475 -1.252264 -9.508784 4.472577 0.654107 -7.122978 0.000000 0.000000 0.000000 1.064720 2.957468 -7.301901 -2.520970 3.983851 -2.405206 0.000000 0.000000 0.000000 -1.467256 -0.682122 -6.200330 -5.087858 -7.714731 -13.172392 -19.405399 -0.597375 -35.093703 -2.065322 -34.292956 0.365695 0.000000 0.000000 0.000000 -0.611645 1.219315 -5.844963 -1.866319 -2.327800 -13.834926 -29.913964 -12.926855 36.582162 -109.548229 75.056799 106.873281 0.000000 0.000000 0.000000 
